<?xml version="1.0" encoding="utf-8"?>
<!-- Generator: Adobe Illustrator 23.0.4, SVG Export Plug-In . SVG Version: 6.00 Build 0)  -->
<svg version="1.1" id="图层_1" xmlns="http://www.w3.org/2000/svg" xmlns:xlink="http://www.w3.org/1999/xlink" x="0px" y="0px"
	 viewBox="0 0 200 200" style="enable-background:new 0 0 200 200;" xml:space="preserve">
<style type="text/css">
	.st0{display:none;}
	.st1{display:inline;fill:#A8A9AB;}
	.st2{fill:#2963C7;}
	.st3{fill:none;stroke:#2963C7;stroke-width:8.6196;}
	.st4{display:none;fill:none;stroke:#A8A9AB;stroke-width:0.9194;stroke-miterlimit:10;}
</style>
<g class="st0">
	<path class="st1" d="M179.2,84.5c-1.4-7.5-6.6-12.4-13.4-12.4h-0.3c-6.9,0-12.5-5.6-12.5-12.6c0-1.6,0.8-3.8,1.1-4.6
		c2.9-6.6,0.7-14.7-5.4-19l-19.1-10.7l-0.8-0.4c-1.9-0.8-4-1.2-6.2-1.2c-4.4,0-8.9,1.7-11.9,4.8c-2.9,2.9-8,6.4-10.3,6.4
		c-2.4,0-7.5-3.5-10.4-6.5c-3-3.2-7.4-4.9-11.9-4.9c-2.1,0-4.2,0.4-6.2,1.2L52.1,35.5L51.3,36c-5.9,4.1-8.2,12.2-5.3,18.8
		c0.4,0.9,1.1,3.1,1.1,4.7c0,6.9-5.6,12.6-13,12.6h-0.3c-6.3,0-11.5,4.9-12.9,12.5c-0.4,2.1-1.6,9.6-1.6,15.7
		c0,6.2,1.2,13.6,1.7,15.8c1.4,7.4,6.6,12.4,12.9,12.4h0.8c6.9,0,12.5,5.6,12.5,12.6c0,1.5-0.7,3.7-1.1,4.6
		c-2.9,6.6-0.7,14.7,5.3,18.9l18.8,10.6l0.8,0.4c1.9,0.9,4,1.2,6.2,1.2c4.5,0,9-1.8,12-5.1c2.8-3,8.2-6.8,10.5-6.8
		c2.4,0,7.7,3.7,10.6,6.9c3,3.3,7.3,5.2,12,5.2c2.2,0,4.3-0.4,6.2-1.2l19.6-10.8l0.8-0.5c5.9-4.1,8.2-12.2,5.3-18.8
		c-0.4-0.9-1.1-3.1-1.1-4.7c0-6.9,5.6-12.6,13-12.6c6.4-0.1,11.7-4.9,13.2-12.5c0.4-2.1,1.6-9.6,1.6-15.7
		C180.8,94.1,179.6,86.7,179.2,84.5L179.2,84.5z M167.8,113.9c-0.3,1.5-1.1,3.1-2,3.1c-13.6,0-24.4,10.6-24.4,24.1c0,4,1.5,8,2,9.1
		c0.8,1.8,0.2,3.9-1.2,4.9l0,0l-18.7,10.3c-0.4,0.1-0.8,0.2-1.3,0.2c-1.3,0-2.6-0.5-3.4-1.4c-1.1-1.2-10.1-10.7-19.2-10.7
		c-9.3,0-18.9,10.4-19,10.5c-0.7,0.8-2.2,1.4-3.5,1.4c-0.5,0-1-0.1-1.4-0.2l-0.2-0.1L57.7,155c-1.2-1.1-1.8-3.1-1.1-4.6
		c0.4-1,2.1-5.2,2.1-9.3c0-13.3-10.8-24.1-24.1-24.1h-0.8c-0.3-0.1-1.2-0.9-1.6-3c-0.3-1.8-1.4-8.5-1.4-13.7c0-4.1,0.7-9.7,1.4-13.7
		c0.4-2,1.2-2.9,1.5-3h0.4c13.8,0,24.5-10.6,24.5-24.1c0-4.2-1.7-8.4-2-9.2c-0.7-1.7-0.2-3.8,1.1-4.8l0.2-0.1l19-10.4
		c0.4-0.1,0.8-0.2,1.3-0.2c1.3,0,2.8,0.5,3.5,1.3c0.4,0.4,9.7,10.1,18.7,10.1c8.9,0,18.2-9.5,18.6-9.9c0.8-0.8,2.2-1.3,3.6-1.3
		c0.5,0,1,0.1,1.4,0.2l0.2,0.1l18.1,10.1c1.3,1.2,1.9,3.1,1.2,4.6c-0.4,1-2.1,5.1-2.1,9.3c0,13.3,10.8,24.1,24.1,24.1
		c1.6,0,2.2,2.1,2.3,3c0.7,3.8,1.5,9.5,1.5,13.7C169.3,104.5,168.5,110.2,167.8,113.9L167.8,113.9z"/>
	<path class="st1" d="M100.1,69.5c-17,0-30.8,13.8-30.8,30.8S83,131,100.1,131c17,0,30.8-13.8,30.8-30.8
		C130.8,83.2,117.1,69.5,100.1,69.5L100.1,69.5z M100.1,119.5c-10.6,0-19.2-8.6-19.2-19.2S89.5,81,100.1,81s19.2,8.6,19.2,19.2
		S110.7,119.5,100.1,119.5z"/>
</g>
<title>分组 5</title>
<desc>Created with Sketch.</desc>
<g id="Page-1">
	<g id="DOT认证-首页-Copy" transform="translate(-142.000000, -1409.000000)">
		<g id="分组-21" transform="translate(143.000000, 1409.000000)">
			
				<g id="biaoqian" transform="translate(8.500000, 10.000000) rotate(-90.000000) translate(-8.500000, -10.000000) translate(0.000000, 2.000000)">
				<path id="形状-copy" class="st2" d="M-34.2,29.6l-44.7,2.1c-5.9,0.3-11.5,2.8-15.7,7l-58.9,58.9c-5.3,5.3-5.3,13.8,0,19.1
					l46.9,46.9c5.3,5.3,13.8,5.3,19.1,0l2.4-2.4l15.6-15.6l40.9-40.9c4.2-4.2,6.7-9.8,7-15.7l2.1-44.7C-19.2,36-26,29.2-34.2,29.6z
					 M-50.5,84.9c-6.7,6.7-17.6,6.7-24.4,0c-6.7-6.7-6.7-17.6,0-24.4c6.7-6.7,17.6-6.7,24.4,0C-43.8,67.2-43.8,78.1-50.5,84.9z"/>
				<path id="形状" class="st3" d="M-23.7,46.8l-39.1,1.9C-68,49-73,51.1-76.6,54.8l-51.6,51.6c-4.6,4.6-4.6,12.1,0,16.7l41,41
					c4.6,4.6,12.1,4.6,16.7,0l2.1-2.1l13.6-13.6l35.8-35.8c3.7-3.7,5.8-8.6,6.1-13.8l1.9-39.1C-10.6,52.4-16.5,46.5-23.7,46.8z"/>
			</g>
		</g>
	</g>
</g>
<rect x="19.3" y="23.4" class="st4" width="161.6" height="153.6"/>
</svg>
