<?xml version="1.0" encoding="utf-8"?>
<!-- Generator: Adobe Illustrator 23.0.4, SVG Export Plug-In . SVG Version: 6.00 Build 0)  -->
<svg version="1.1" id="图层_1" xmlns="http://www.w3.org/2000/svg" xmlns:xlink="http://www.w3.org/1999/xlink" x="0px" y="0px"
	 viewBox="0 0 200 200" style="enable-background:new 0 0 200 200;" xml:space="preserve">
<style type="text/css">
	.st0{display:none;}
	.st1{display:inline;fill:#A8A9AB;}
	.st2{display:inline;}
	.st3{fill:#1F2D41;}
	.st4{fill:url(#星形_1_);}
</style>
<g class="st0">
	<path class="st1" d="M179.2,84.5c-1.4-7.5-6.6-12.4-13.4-12.4h-0.3c-6.9,0-12.5-5.6-12.5-12.6c0-1.6,0.8-3.8,1.1-4.6
		c2.9-6.6,0.7-14.7-5.4-19l-19.1-10.7l-0.8-0.4c-1.9-0.8-4-1.2-6.2-1.2c-4.4,0-8.9,1.7-11.9,4.8c-2.9,2.9-8,6.4-10.3,6.4
		c-2.4,0-7.5-3.5-10.4-6.5c-3-3.2-7.4-4.9-11.9-4.9c-2.1,0-4.2,0.4-6.2,1.2L52.1,35.5L51.3,36c-5.9,4.1-8.2,12.2-5.3,18.8
		c0.4,0.9,1.1,3.1,1.1,4.7c0,6.9-5.6,12.6-13,12.6h-0.3c-6.3,0-11.5,4.9-12.9,12.5c-0.4,2.1-1.6,9.6-1.6,15.7
		c0,6.2,1.2,13.6,1.7,15.8c1.4,7.4,6.6,12.4,12.9,12.4h0.8c6.9,0,12.5,5.6,12.5,12.6c0,1.5-0.7,3.7-1.1,4.6
		c-2.9,6.6-0.7,14.7,5.3,18.9l18.8,10.6l0.8,0.4c1.9,0.9,4,1.2,6.2,1.2c4.5,0,9-1.8,12-5.1c2.8-3,8.2-6.8,10.5-6.8
		c2.4,0,7.7,3.7,10.6,6.9c3,3.3,7.3,5.2,12,5.2c2.2,0,4.3-0.4,6.2-1.2l19.6-10.8l0.8-0.5c5.9-4.1,8.2-12.2,5.3-18.8
		c-0.4-0.9-1.1-3.1-1.1-4.7c0-6.9,5.6-12.6,13-12.6c6.4-0.1,11.7-4.9,13.2-12.5c0.4-2.1,1.6-9.6,1.6-15.7
		C180.8,94.1,179.6,86.7,179.2,84.5L179.2,84.5z M167.8,113.9c-0.3,1.5-1.1,3.1-2,3.1c-13.6,0-24.4,10.6-24.4,24.1c0,4,1.5,8,2,9.1
		c0.8,1.8,0.2,3.9-1.2,4.9l0,0l-18.7,10.3c-0.4,0.1-0.8,0.2-1.3,0.2c-1.3,0-2.6-0.5-3.4-1.4c-1.1-1.2-10.1-10.7-19.2-10.7
		c-9.3,0-18.9,10.4-19,10.5c-0.7,0.8-2.2,1.4-3.5,1.4c-0.5,0-1-0.1-1.4-0.2l-0.2-0.1L57.7,155c-1.2-1.1-1.8-3.1-1.1-4.6
		c0.4-1,2.1-5.2,2.1-9.3c0-13.3-10.8-24.1-24.1-24.1h-0.8c-0.3-0.1-1.2-0.9-1.6-3c-0.3-1.8-1.4-8.5-1.4-13.7c0-4.1,0.7-9.7,1.4-13.7
		c0.4-2,1.2-2.9,1.5-3h0.4c13.8,0,24.5-10.6,24.5-24.1c0-4.2-1.7-8.4-2-9.2c-0.7-1.7-0.2-3.8,1.1-4.8l0.2-0.1l19-10.4
		c0.4-0.1,0.8-0.2,1.3-0.2c1.3,0,2.8,0.5,3.5,1.3c0.4,0.4,9.7,10.1,18.7,10.1c8.9,0,18.2-9.5,18.6-9.9c0.8-0.8,2.2-1.3,3.6-1.3
		c0.5,0,1,0.1,1.4,0.2l0.2,0.1l18.1,10.1c1.3,1.2,1.9,3.1,1.2,4.6c-0.4,1-2.1,5.1-2.1,9.3c0,13.3,10.8,24.1,24.1,24.1
		c1.6,0,2.2,2.1,2.3,3c0.7,3.8,1.5,9.5,1.5,13.7C169.3,104.5,168.5,110.2,167.8,113.9L167.8,113.9z"/>
	<path class="st1" d="M100.1,69.5c-17,0-30.8,13.8-30.8,30.8S83,131,100.1,131c17,0,30.8-13.8,30.8-30.8
		C130.8,83.2,117.1,69.5,100.1,69.5L100.1,69.5z M100.1,119.5c-10.6,0-19.2-8.6-19.2-19.2S89.5,81,100.1,81s19.2,8.6,19.2,19.2
		S110.7,119.5,100.1,119.5z"/>
</g>
<g id="Page-1" class="st0">
	<g id="DOT认证-详情页-未输入数量-Copy" transform="translate(-135.000000, -497.000000)" class="st2">
		<g id="dizhi" transform="translate(135.000000, 497.000000)">
			<path id="形状" class="st3" d="M142,34.5c-11.8-11.7-27.6-18.1-44.3-18.1c-16.7,0-32.5,6.4-44.3,18.1
				C41.5,46.2,35,61.7,35,78.2c0,12.9,4,25.3,11.6,35.8c0.1,0.2,0.2,0.4,0.4,0.5l0.2,0.3c0.2,0.3,0.4,0.5,0.6,0.7
				c0.1,0.1,0.2,0.3,0.3,0.4l0,0l46.5,60.2c0.7,0.9,1.8,1.5,3,1.5c1.2,0,2.3-0.5,3-1.5l46.6-60.2c0.3-0.4,0.6-0.8,0.9-1.2l0.3-0.3
				c0.1-0.2,0.2-0.3,0.3-0.5c7.6-10.5,11.6-22.8,11.6-35.8C160.3,61.7,153.8,46.2,142,34.5z M139.3,107c-0.1,0.1-0.2,0.3-0.3,0.4
				l-0.2,0.2c-0.2,0.3-0.5,0.6-0.7,0.9l-37.9,48.7c-0.6,0.8-1.5,1.2-2.5,1.2c-1,0-1.9-0.4-2.5-1.2l-37.9-48.7l0,0
				c-0.1-0.1-0.2-0.2-0.3-0.3c-0.1-0.2-0.3-0.4-0.5-0.6l-0.2-0.2c-0.1-0.1-0.2-0.3-0.3-0.4c-6.2-8.5-9.5-18.5-9.5-29
				c0-13.3,5.3-25.9,14.9-35.3c9.6-9.4,22.5-14.6,36.1-14.6c13.6,0,26.5,5.2,36.1,14.6c9.6,9.4,14.9,22,14.9,35.3
				C148.8,88.5,145.5,98.5,139.3,107z M97.7,61.9c-12,0-21.8,9.6-21.8,21.4s9.8,21.4,21.8,21.4c12,0,21.8-9.6,21.8-21.4
				C119.4,71.6,109.7,61.9,97.7,61.9z M97.7,93.3c-5.6,0-10.1-4.5-10.1-9.9s4.5-9.9,10.1-9.9c5.6,0,10.1,4.5,10.1,9.9
				C107.7,88.9,103.2,93.3,97.7,93.3z"/>
		</g>
	</g>
</g>
<g id="Page-1_1_">
	<g id="DOT认证-首页-Copy_1_" transform="translate(-438.000000, -854.000000)">
		<g id="分组" transform="translate(121.000000, 663.000000)">
			<g id="文字" transform="translate(243.000000, 1.000000)">
				<g id="分组-12" transform="translate(12.000000, 189.000000)">
					
						<linearGradient id="星形_1_" gradientUnits="userSpaceOnUse" x1="-888.8716" y1="76.8872" x2="-888.8716" y2="88.942" gradientTransform="matrix(8.3617 0 0 8.0015 7594.9707 -564.3638)">
						<stop  offset="0" style="stop-color:#F58720"/>
						<stop  offset="1" style="stop-color:#FFE72D"/>
					</linearGradient>
					<path id="星形" class="st4" d="M162.5,155.9l-39.9,21c-4.8,2.5-10.7,0.7-13.2-4.1c-1-1.9-1.3-4.1-1-6.2l7.6-44.4L83.8,90.7
						c-3.9-3.8-3.9-9.9-0.2-13.8c1.5-1.5,3.5-2.5,5.6-2.8l44.6-6.5l19.9-40.4c2.4-4.8,8.2-6.8,13.1-4.4c1.9,1,3.5,2.5,4.4,4.4
						l19.9,40.4l44.6,6.5c5.3,0.8,9,5.7,8.3,11.1c-0.3,2.1-1.3,4.1-2.8,5.6l-32.3,31.5l7.6,44.4c0.9,5.3-2.7,10.4-8,11.3
						c-2.1,0.4-4.3,0-6.2-1L162.5,155.9z"/>
				</g>
			</g>
		</g>
	</g>
</g>
</svg>
